<mxfile host="Electron" modified="2025-07-02T07:44:10.589Z" agent="Mozilla/5.0 (Windows NT 10.0; Win64; x64) AppleWebKit/537.36 (KHTML, like Gecko) draw.io/21.1.2 Chrome/106.0.5249.199 Electron/21.4.3 Safari/537.36" etag="U_hNLYFIsOJ4IRKiEDKv" version="21.1.2" type="device">
  <diagram name="Page-1" id="e7e014a7-5840-1c2e-5031-d8a46d1fe8dd">
    <mxGraphModel dx="1230" dy="844" grid="1" gridSize="10" guides="1" tooltips="1" connect="1" arrows="1" fold="1" page="1" pageScale="1" pageWidth="1169" pageHeight="826" background="none" math="0" shadow="0">
      <root>
        <mxCell id="0" />
        <mxCell id="1" parent="0" />
        <mxCell id="WvvKIZW9pOeuOJP1mxYE-61" value="" style="edgeStyle=orthogonalEdgeStyle;rounded=0;orthogonalLoop=1;jettySize=auto;html=1;" edge="1" parent="1" source="WvvKIZW9pOeuOJP1mxYE-57" target="WvvKIZW9pOeuOJP1mxYE-60">
          <mxGeometry relative="1" as="geometry" />
        </mxCell>
        <mxCell id="WvvKIZW9pOeuOJP1mxYE-57" value="시작" style="ellipse;whiteSpace=wrap;html=1;aspect=fixed;" vertex="1" parent="1">
          <mxGeometry x="80" y="40" width="80" height="80" as="geometry" />
        </mxCell>
        <mxCell id="WvvKIZW9pOeuOJP1mxYE-63" value="" style="edgeStyle=orthogonalEdgeStyle;rounded=0;orthogonalLoop=1;jettySize=auto;html=1;" edge="1" parent="1" source="WvvKIZW9pOeuOJP1mxYE-60" target="WvvKIZW9pOeuOJP1mxYE-62">
          <mxGeometry relative="1" as="geometry" />
        </mxCell>
        <mxCell id="WvvKIZW9pOeuOJP1mxYE-60" value="숫자 6개 입력" style="whiteSpace=wrap;html=1;fillColor=rgb(255, 255, 255);strokeColor=rgb(0, 0, 0);fontColor=rgb(0, 0, 0);" vertex="1" parent="1">
          <mxGeometry x="60" y="210" width="120" height="60" as="geometry" />
        </mxCell>
        <mxCell id="WvvKIZW9pOeuOJP1mxYE-67" value="" style="edgeStyle=orthogonalEdgeStyle;rounded=0;orthogonalLoop=1;jettySize=auto;html=1;" edge="1" parent="1" source="WvvKIZW9pOeuOJP1mxYE-62" target="WvvKIZW9pOeuOJP1mxYE-66">
          <mxGeometry relative="1" as="geometry" />
        </mxCell>
        <mxCell id="WvvKIZW9pOeuOJP1mxYE-62" value="무결성 검사" style="ellipse;whiteSpace=wrap;html=1;fillColor=rgb(255, 255, 255);strokeColor=rgb(0, 0, 0);fontColor=rgb(0, 0, 0);" vertex="1" parent="1">
          <mxGeometry x="80" y="310" width="80" height="80" as="geometry" />
        </mxCell>
        <mxCell id="WvvKIZW9pOeuOJP1mxYE-69" value="" style="edgeStyle=orthogonalEdgeStyle;rounded=0;orthogonalLoop=1;jettySize=auto;html=1;" edge="1" parent="1" source="WvvKIZW9pOeuOJP1mxYE-66" target="WvvKIZW9pOeuOJP1mxYE-68">
          <mxGeometry relative="1" as="geometry" />
        </mxCell>
        <mxCell id="WvvKIZW9pOeuOJP1mxYE-66" value="숫자 7개 생성" style="ellipse;whiteSpace=wrap;html=1;fillColor=rgb(255, 255, 255);strokeColor=rgb(0, 0, 0);fontColor=rgb(0, 0, 0);" vertex="1" parent="1">
          <mxGeometry x="240" y="310" width="80" height="80" as="geometry" />
        </mxCell>
        <mxCell id="WvvKIZW9pOeuOJP1mxYE-71" value="" style="edgeStyle=orthogonalEdgeStyle;rounded=0;orthogonalLoop=1;jettySize=auto;html=1;" edge="1" parent="1" source="WvvKIZW9pOeuOJP1mxYE-68" target="WvvKIZW9pOeuOJP1mxYE-70">
          <mxGeometry relative="1" as="geometry" />
        </mxCell>
        <mxCell id="WvvKIZW9pOeuOJP1mxYE-68" value="마지막을 제외한 6개 정렬" style="ellipse;whiteSpace=wrap;html=1;fillColor=rgb(255, 255, 255);strokeColor=rgb(0, 0, 0);fontColor=rgb(0, 0, 0);" vertex="1" parent="1">
          <mxGeometry x="240" y="470" width="80" height="80" as="geometry" />
        </mxCell>
        <mxCell id="WvvKIZW9pOeuOJP1mxYE-73" value="" style="edgeStyle=orthogonalEdgeStyle;rounded=0;orthogonalLoop=1;jettySize=auto;html=1;" edge="1" parent="1" source="WvvKIZW9pOeuOJP1mxYE-70" target="WvvKIZW9pOeuOJP1mxYE-72">
          <mxGeometry relative="1" as="geometry" />
        </mxCell>
        <mxCell id="WvvKIZW9pOeuOJP1mxYE-70" value="일치한 개수 계산 및 등수 계산" style="ellipse;whiteSpace=wrap;html=1;fillColor=rgb(255, 255, 255);strokeColor=rgb(0, 0, 0);fontColor=rgb(0, 0, 0);" vertex="1" parent="1">
          <mxGeometry x="80" y="470" width="80" height="80" as="geometry" />
        </mxCell>
        <mxCell id="WvvKIZW9pOeuOJP1mxYE-75" value="" style="edgeStyle=orthogonalEdgeStyle;rounded=0;orthogonalLoop=1;jettySize=auto;html=1;" edge="1" parent="1" source="WvvKIZW9pOeuOJP1mxYE-72" target="WvvKIZW9pOeuOJP1mxYE-74">
          <mxGeometry relative="1" as="geometry" />
        </mxCell>
        <mxCell id="WvvKIZW9pOeuOJP1mxYE-72" value="등수 알림" style="ellipse;whiteSpace=wrap;html=1;fillColor=rgb(255, 255, 255);strokeColor=rgb(0, 0, 0);fontColor=rgb(0, 0, 0);" vertex="1" parent="1">
          <mxGeometry x="80" y="630" width="80" height="80" as="geometry" />
        </mxCell>
        <mxCell id="WvvKIZW9pOeuOJP1mxYE-74" value="종료" style="ellipse;whiteSpace=wrap;html=1;fillColor=rgb(255, 255, 255);strokeColor=rgb(0, 0, 0);fontColor=rgb(0, 0, 0);" vertex="1" parent="1">
          <mxGeometry x="240" y="630" width="80" height="80" as="geometry" />
        </mxCell>
        <mxCell id="WvvKIZW9pOeuOJP1mxYE-76" value="" style="endArrow=none;html=1;rounded=0;" edge="1" parent="1">
          <mxGeometry width="50" height="50" relative="1" as="geometry">
            <mxPoint x="370" y="1282" as="sourcePoint" />
            <mxPoint x="370" y="60" as="targetPoint" />
          </mxGeometry>
        </mxCell>
        <mxCell id="WvvKIZW9pOeuOJP1mxYE-79" value="" style="edgeStyle=orthogonalEdgeStyle;rounded=0;orthogonalLoop=1;jettySize=auto;html=1;" edge="1" parent="1" source="WvvKIZW9pOeuOJP1mxYE-77" target="WvvKIZW9pOeuOJP1mxYE-78">
          <mxGeometry relative="1" as="geometry" />
        </mxCell>
        <mxCell id="WvvKIZW9pOeuOJP1mxYE-77" value="숫자 6개 입력" style="whiteSpace=wrap;html=1;fillColor=rgb(255, 255, 255);strokeColor=rgb(0, 0, 0);fontColor=rgb(0, 0, 0);" vertex="1" parent="1">
          <mxGeometry x="430" y="80" width="120" height="60" as="geometry" />
        </mxCell>
        <mxCell id="WvvKIZW9pOeuOJP1mxYE-81" value="" style="edgeStyle=orthogonalEdgeStyle;rounded=0;orthogonalLoop=1;jettySize=auto;html=1;" edge="1" parent="1" source="WvvKIZW9pOeuOJP1mxYE-78" target="WvvKIZW9pOeuOJP1mxYE-80">
          <mxGeometry relative="1" as="geometry" />
        </mxCell>
        <mxCell id="WvvKIZW9pOeuOJP1mxYE-84" value="" style="edgeStyle=orthogonalEdgeStyle;rounded=0;orthogonalLoop=1;jettySize=auto;html=1;" edge="1" parent="1" source="WvvKIZW9pOeuOJP1mxYE-78" target="WvvKIZW9pOeuOJP1mxYE-83">
          <mxGeometry relative="1" as="geometry" />
        </mxCell>
        <mxCell id="WvvKIZW9pOeuOJP1mxYE-78" value="6개가 맞는지,&lt;br&gt;중복이 없는지,&lt;br&gt;1~45인 수만 있는지" style="rhombus;whiteSpace=wrap;html=1;fillColor=rgb(255, 255, 255);strokeColor=rgb(0, 0, 0);fontColor=rgb(0, 0, 0);" vertex="1" parent="1">
          <mxGeometry x="382.5" y="230" width="215" height="190" as="geometry" />
        </mxCell>
        <mxCell id="WvvKIZW9pOeuOJP1mxYE-82" style="edgeStyle=orthogonalEdgeStyle;rounded=0;orthogonalLoop=1;jettySize=auto;html=1;entryX=1;entryY=0.5;entryDx=0;entryDy=0;" edge="1" parent="1" target="WvvKIZW9pOeuOJP1mxYE-77">
          <mxGeometry relative="1" as="geometry">
            <mxPoint x="790" y="290" as="sourcePoint" />
            <Array as="points">
              <mxPoint x="785" y="110" />
            </Array>
          </mxGeometry>
        </mxCell>
        <mxCell id="WvvKIZW9pOeuOJP1mxYE-80" value="아니오" style="ellipse;whiteSpace=wrap;html=1;fillColor=rgb(255, 255, 255);strokeColor=rgb(0, 0, 0);fontColor=rgb(0, 0, 0);" vertex="1" parent="1">
          <mxGeometry x="745" y="285" width="80" height="80" as="geometry" />
        </mxCell>
        <mxCell id="WvvKIZW9pOeuOJP1mxYE-86" value="" style="edgeStyle=orthogonalEdgeStyle;rounded=0;orthogonalLoop=1;jettySize=auto;html=1;" edge="1" parent="1" source="WvvKIZW9pOeuOJP1mxYE-83" target="WvvKIZW9pOeuOJP1mxYE-85">
          <mxGeometry relative="1" as="geometry" />
        </mxCell>
        <mxCell id="WvvKIZW9pOeuOJP1mxYE-83" value="예" style="ellipse;whiteSpace=wrap;html=1;fillColor=rgb(255, 255, 255);strokeColor=rgb(0, 0, 0);fontColor=rgb(0, 0, 0);" vertex="1" parent="1">
          <mxGeometry x="450" y="555" width="80" height="80" as="geometry" />
        </mxCell>
        <mxCell id="WvvKIZW9pOeuOJP1mxYE-88" value="" style="edgeStyle=orthogonalEdgeStyle;rounded=0;orthogonalLoop=1;jettySize=auto;html=1;" edge="1" parent="1" source="WvvKIZW9pOeuOJP1mxYE-85" target="WvvKIZW9pOeuOJP1mxYE-87">
          <mxGeometry relative="1" as="geometry" />
        </mxCell>
        <mxCell id="WvvKIZW9pOeuOJP1mxYE-85" value="7개 생성" style="ellipse;whiteSpace=wrap;html=1;fillColor=rgb(255, 255, 255);strokeColor=rgb(0, 0, 0);fontColor=rgb(0, 0, 0);" vertex="1" parent="1">
          <mxGeometry x="610" y="555" width="80" height="80" as="geometry" />
        </mxCell>
        <mxCell id="WvvKIZW9pOeuOJP1mxYE-90" value="" style="edgeStyle=orthogonalEdgeStyle;rounded=0;orthogonalLoop=1;jettySize=auto;html=1;" edge="1" parent="1" source="WvvKIZW9pOeuOJP1mxYE-87" target="WvvKIZW9pOeuOJP1mxYE-89">
          <mxGeometry relative="1" as="geometry" />
        </mxCell>
        <mxCell id="WvvKIZW9pOeuOJP1mxYE-87" value="1초 간격으로 하나씩 보여주고, 마지막은 보너스 번호로 보여주기" style="ellipse;whiteSpace=wrap;html=1;fillColor=rgb(255, 255, 255);strokeColor=rgb(0, 0, 0);fontColor=rgb(0, 0, 0);" vertex="1" parent="1">
          <mxGeometry x="770" y="523.75" width="150" height="142.5" as="geometry" />
        </mxCell>
        <mxCell id="WvvKIZW9pOeuOJP1mxYE-92" value="" style="edgeStyle=orthogonalEdgeStyle;rounded=0;orthogonalLoop=1;jettySize=auto;html=1;" edge="1" parent="1" source="WvvKIZW9pOeuOJP1mxYE-89" target="WvvKIZW9pOeuOJP1mxYE-91">
          <mxGeometry relative="1" as="geometry" />
        </mxCell>
        <mxCell id="WvvKIZW9pOeuOJP1mxYE-89" value="등수 계산&lt;br&gt;3개 : 5등&lt;br&gt;4개 : 4등&lt;br&gt;5개 : 3등&lt;br&gt;5개 + 보너스 : 2등&lt;br&gt;6개 : 1등" style="ellipse;whiteSpace=wrap;html=1;fillColor=rgb(255, 255, 255);strokeColor=rgb(0, 0, 0);fontColor=rgb(0, 0, 0);" vertex="1" parent="1">
          <mxGeometry x="767.5" y="790" width="155" height="132.5" as="geometry" />
        </mxCell>
        <mxCell id="WvvKIZW9pOeuOJP1mxYE-94" value="" style="edgeStyle=orthogonalEdgeStyle;rounded=0;orthogonalLoop=1;jettySize=auto;html=1;" edge="1" parent="1" source="WvvKIZW9pOeuOJP1mxYE-91" target="WvvKIZW9pOeuOJP1mxYE-93">
          <mxGeometry relative="1" as="geometry" />
        </mxCell>
        <mxCell id="WvvKIZW9pOeuOJP1mxYE-91" value="등수 알림" style="ellipse;whiteSpace=wrap;html=1;fillColor=rgb(255, 255, 255);strokeColor=rgb(0, 0, 0);fontColor=rgb(0, 0, 0);" vertex="1" parent="1">
          <mxGeometry x="570" y="816.25" width="80" height="80" as="geometry" />
        </mxCell>
        <mxCell id="WvvKIZW9pOeuOJP1mxYE-93" value="종료" style="ellipse;whiteSpace=wrap;html=1;fillColor=rgb(255, 255, 255);strokeColor=rgb(0, 0, 0);fontColor=rgb(0, 0, 0);" vertex="1" parent="1">
          <mxGeometry x="410" y="816.25" width="80" height="80" as="geometry" />
        </mxCell>
      </root>
    </mxGraphModel>
  </diagram>
</mxfile>
